<?xml version="1.0" ?><svg data-name="Layer 1" id="Layer_1" viewBox="0 0 100 100" xmlns="http://www.w3.org/2000/svg"><defs><style>.cls-1{fill-rule:evenodd;}</style></defs><path class="cls-1" d="M33.525,52.518a11.2,11.2,0,1,0-11.2-11.2,11.218,11.218,0,0,0,11.2,11.2Zm6.428-11.2a6.427,6.427,0,1,1-6.428-6.427A6.435,6.435,0,0,1,39.953,41.314Z"/><path class="cls-1" d="M33.525,25.554a2.387,2.387,0,0,1-2.387-2.387V17.9a2.388,2.388,0,1,1,4.775,0v5.271A2.388,2.388,0,0,1,33.525,25.554Z"/><path class="cls-1" d="M35.913,59.463v5.268a2.388,2.388,0,1,1-4.775,0V59.463a2.388,2.388,0,1,1,4.775,0Z"/><path class="cls-1" d="M17.766,41.314A2.389,2.389,0,0,1,15.378,43.7h-5.27a2.388,2.388,0,0,1,0-4.775h5.268A2.389,2.389,0,0,1,17.766,41.314Z"/><path class="cls-1" d="M56.943,43.7h-5.27a2.388,2.388,0,1,1,0-4.775h5.27a2.388,2.388,0,0,1,0,4.775Z"/><path class="cls-1" d="M22.38,52.458a2.385,2.385,0,0,1,0,3.377l-3.724,3.726a2.389,2.389,0,0,1-3.379-3.378l3.728-3.725A2.383,2.383,0,0,1,22.38,52.458Z"/><path class="cls-1" d="M48.049,30.171a2.389,2.389,0,1,1-3.379-3.379L48.4,23.068a2.388,2.388,0,0,1,3.375,3.378Z"/><path class="cls-1" d="M48.046,52.461l3.727,3.724A2.389,2.389,0,0,1,48.4,59.564L44.67,55.837a2.387,2.387,0,0,1,3.376-3.376Z"/><path class="cls-1" d="M20.7,30.871a2.39,2.39,0,0,1-1.69-.7L15.28,26.445a2.389,2.389,0,0,1,3.379-3.377l3.724,3.724A2.39,2.39,0,0,1,20.7,30.871Z"/><path class="cls-1" d="M7.39,79.717a16.076,16.076,0,0,0,7.534-1.642,20.781,20.781,0,0,1,9.434-2.034,20.763,20.763,0,0,1,9.433,2.034,16.1,16.1,0,0,0,7.536,1.642,16.077,16.077,0,0,0,7.535-1.642A20.783,20.783,0,0,1,58.3,76.041a20.771,20.771,0,0,1,9.434,2.034,16.092,16.092,0,0,0,7.534,1.642,16.607,16.607,0,0,0,4.829-.607c2.014-6.137,1.676-13.039-1.009-20.519a48.163,48.163,0,0,0-3.539-7.638c-2.372,2.52-5.823,7.15-4.062,11.357a2.389,2.389,0,1,1-4.406,1.846c-2.312-5.526.47-10.894,3.27-14.472-2.63.534-5.98,2.124-9.266,6.217a2.387,2.387,0,1,1-3.724-2.988c4.7-5.851,9.712-7.625,13.094-8.084a16.406,16.406,0,0,1,3.486-.1A15.567,15.567,0,0,1,75.643,40.3c1.824-3.178,5.7-7.159,13.754-8.1a2.388,2.388,0,1,1,.55,4.744c-4.793.557-8.179,2.428-10.064,5.561-.144.243-.276.485-.394.723.47-.126.965-.245,1.484-.346a15.812,15.812,0,0,1,13.113,3.039,2.388,2.388,0,0,1-2.95,3.757c-4.246-3.334-8.95-2.442-11.65-1.458a53.029,53.029,0,0,1,4.045,8.621,38.087,38.087,0,0,1,2.031,20.15,21.081,21.081,0,0,1,6.671-.953,2.389,2.389,0,0,1,0,4.778A16.086,16.086,0,0,0,84.7,82.458a20.775,20.775,0,0,1-9.434,2.034,20.751,20.751,0,0,1-9.43-2.034A16.1,16.1,0,0,0,58.3,80.819a16.077,16.077,0,0,0-7.534,1.639,20.778,20.778,0,0,1-9.434,2.034,20.773,20.773,0,0,1-9.433-2.034,16.083,16.083,0,0,0-7.536-1.639,16.072,16.072,0,0,0-7.535,1.639A20.817,20.817,0,0,1,7.39,84.492a2.388,2.388,0,1,1,0-4.775Z"/></svg>