<?xml version="1.0" ?><svg viewBox="0 0 64 64" xmlns="http://www.w3.org/2000/svg"><g data-name="8-camera" id="_8-camera"><path d="M61,14H47.618L43.9,6.553A1,1,0,0,0,43,6H21a1,1,0,0,0-.895.553L16.382,14H14V13a3,3,0,0,0-3-3H7a3,3,0,0,0-3,3v1H3a3,3,0,0,0-3,3V55a3,3,0,0,0,3,3H61a3,3,0,0,0,3-3V17A3,3,0,0,0,61,14ZM21.618,8H42.382l3,6H18.618ZM6,13a1,1,0,0,1,1-1h4a1,1,0,0,1,1,1v1H6ZM3,16H61a1,1,0,0,1,1,1v7H45.378a17.914,17.914,0,0,0-26.756,0H2V17A1,1,0,0,1,3,16ZM16,36A16,16,0,1,1,32,52,16.019,16.019,0,0,1,16,36Zm1.044,10H2V26H17.044a17.948,17.948,0,0,0,0,20ZM50,36a17.894,17.894,0,0,0-3.044-10H62V46H46.956A17.894,17.894,0,0,0,50,36ZM61,56H3a1,1,0,0,1-1-1V48H18.622a17.914,17.914,0,0,0,26.756,0H62v7A1,1,0,0,1,61,56Z"/><path d="M32,50A14,14,0,1,0,18,36,14.015,14.015,0,0,0,32,50Zm0-26A12,12,0,1,1,20,36,12.013,12.013,0,0,1,32,24Z"/><path d="M32,46A10.011,10.011,0,0,0,42,36a1,1,0,0,0-2,0,7.994,7.994,0,1,1-.831-3.555,1,1,0,1,0,1.791-.89A10,10,0,1,0,32,46Z"/><path d="M50,23a3,3,0,1,0-3-3A3,3,0,0,0,50,23Zm0-4a1,1,0,1,1-1,1A1,1,0,0,1,50,19Z"/></g></svg>