<?xml version="1.0" ?><svg data-name="Layer 1" id="Layer_1" viewBox="0 0 64 64" xmlns="http://www.w3.org/2000/svg"><title/><path d="M31.91,2.506A24.736,24.736,0,0,0,12,27a24.631,24.631,0,0,0,2.2,10.241H8.657a1,1,0,0,0-.707,1.707l2.828,2.829L9.364,43.191a1,1,0,0,0,1.414,1.414l1.414-1.414,1.292,1.291L11.053,47.4,2.859,48.565a1,1,0,0,0-.421,1.816l4.489,3.055a3.355,3.355,0,0,0,.988,2.446l0,.005.033.035a3.444,3.444,0,0,0,2.428,1.03c.019,0,.038,0,.057,0l3.05,4.484a1,1,0,0,0,.826.438,1.04,1.04,0,0,0,.227-.026,1,1,0,0,0,.763-.833l1.169-8.195,2.914-2.43,1.292,1.291L19.264,53.09A1,1,0,0,0,20.678,54.5l1.414-1.414,2.828,2.829a1,1,0,0,0,1.707-.707V49.741a24.973,24.973,0,0,0,32.58-11.279A24.554,24.554,0,0,0,62,27,25.042,25.042,0,0,0,31.91,2.506ZM37,4c2.261,0,4.67,3.392,6.248,9h-12.5C32.33,7.392,34.739,4,37,4ZM29.019,26a54.426,54.426,0,0,1,1.228-11H43.753a54.426,54.426,0,0,1,1.228,11Zm15.962,2a56.883,56.883,0,0,1-.826,9H29.845a56.883,56.883,0,0,1-.826-9ZM32.635,4.421A22.518,22.518,0,0,0,28.668,13h-9.9A23.025,23.025,0,0,1,32.635,4.421ZM17.388,15h10.8A57.1,57.1,0,0,0,27.01,26H14.025A22.85,22.85,0,0,1,17.388,15ZM11.071,39.241h6.783l-3.084,3.7ZM7.633,51.5,5.7,50.18l3.445-.491Zm6.055,6.673-1.317-1.936,1.809-1.508ZM24.627,52.8l-3.7-3.7,3.7-3.085Zm.36-9.688L11.087,54.7a1.3,1.3,0,0,1-1.721-.194l-.707.707.7-.712a1.3,1.3,0,0,1-.194-1.721l11.592-13.9A2.479,2.479,0,0,1,22.578,38q.064,0,.129,0a3.236,3.236,0,0,1,3.159,3.29A2.477,2.477,0,0,1,24.987,43.11Zm1.64,4.4V44.276a4.455,4.455,0,0,0,1.237-2.9,5.229,5.229,0,0,0-5.376-5.376,4.458,4.458,0,0,0-2.9,1.236H16.421A22.575,22.575,0,0,1,14.03,28H27.01c.145,9.641,2.374,17.725,5.623,21.577A22.858,22.858,0,0,1,26.627,47.512ZM37,50c-2.519,0-5.223-4.2-6.753-11H43.753C42.223,45.8,39.519,50,37,50Zm4.367-.424c1.9-2.255,3.455-5.959,4.445-10.576h10.8A22.869,22.869,0,0,1,41.367,49.576ZM57.693,37h-11.5a59.253,59.253,0,0,0,.8-9H59.971A22.5,22.5,0,0,1,57.693,37Zm2.282-11H46.99a57.1,57.1,0,0,0-1.178-11h10.8A22.85,22.85,0,0,1,59.975,26ZM45.332,13a22.518,22.518,0,0,0-3.967-8.579A23.025,23.025,0,0,1,55.23,13Z"/></svg>